PathFileType	4	(X/Y/Z)	4_coords_data.trc
DataRate	CameraRate	NumFrames	NumMarkers	Units	OrigDataRate	OrigDataStartFrame	OrigNumFrames
30.0	30.0	4	21	m	30.0	1	50
Frame#	Time	THUMB_TIP	THUMB_IP	THUMB_MCP	THUMB_CMC	INDEX_TIP	INDEX_DIP	INDEX_PIP	INDEX_MCP	MIDDLE_TIP	MIDDLE_DIP	MIDDLE_PIP	MIDDLE_MCP	RING_TIP	RING_DIP	RING_PIP	RING_MCP	PINKY_TIP	PINKY_DIP	PINKY_PIP	PINKY_MCP	WRIST
X1	Y1	Z1	X2	Y2	Z2	X3	Y3	Z3	X4	Y4	Z4	X5	Y5	Z5	X6	Y6	Z6	X7	Y7	Z7	X8	Y8	Z8	X9	Y9	Z9	X10	Y10	Z10	X11	Y11	Z11	X12	Y12	Z12	X13	Y13	Z13	X14	Y14	Z14	X15	Y15	Z15	X16	Y16	Z16	X17	Y17	Z17	X18	Y18	Z18	X19	Y19	Z19	X20	Y20	Z20	X21	Y21	Z21
0	0.0	-0.04027349853515625	-0.11749099731445313	1.0518900146484376	-0.048982898712158204	-0.09358999633789063	1.0639100341796874	-0.0670519027709961	-0.07977339935302734	1.0873800048828124	-0.07847899627685546	-0.042233299255371094	1.1006099853515625	-0.02269350051879883	-0.07981539916992188	0.9749420166015625	-0.04250809860229492	-0.07734140014648437	0.9899290161132812	-0.06088809967041016	-0.0733915023803711	1.0069099731445312	-0.08540139770507812	-0.06690850067138672	1.0385	-0.0212810001373291	-0.0496968002319336	0.9514910278320312	-0.03773799896240235	-0.047931400299072266	0.9737789916992188	-0.05983689880371094	-0.04561069869995117	1.001280029296875	-0.08749919891357422	-0.04152280044555664	1.0376400146484375	-0.015008099555969238	-0.018550899505615233	0.9563759765625	-0.03428889846801758	-0.01678109931945801	0.971656005859375	-0.057003501892089845	-0.014941499710083008	0.9921580200195312	-0.08314749908447265	-0.017222700119018556	1.0340899658203124	-0.01868880081176758	0.014350299835205077	0.986843994140625	-0.0375010986328125	0.017018800735473634	0.9978200073242187	-0.05577009963989258	0.01498859977722168	1.00775	-0.06815519714355468	0.004765560150146484	1.0340699462890626	-0.10616400146484375	-0.010353599548339844	1.116719970703125
1	0.03333333333333333	-0.040333698272705075	-0.11739299774169921	1.051449951171875	-0.04889759826660156	-0.09334970092773437	1.06531005859375	-0.06811180114746093	-0.07844950103759765	1.0885400390625	-0.07779129791259766	-0.04316400146484375	1.1009200439453124	-0.02357640075683594	-0.08031050109863282	0.9753079833984375	-0.04224369812011719	-0.07746189880371093	0.9900269775390625	-0.06123529815673828	-0.07378309631347656	1.0075	-0.08574040222167968	-0.06589550018310547	1.04077001953125	-0.021409999847412108	-0.0503224983215332	0.95139697265625	-0.03736220169067383	-0.04866109848022461	0.97277099609375	-0.057465801239013674	-0.04632730102539063	0.9969429931640625	-0.08424430084228515	-0.041197399139404296	1.032050048828125	-0.014943900108337403	-0.018716100692749024	0.95727001953125	-0.03384640121459961	-0.017258100509643555	0.9742750244140626	-0.05615250015258789	-0.016641700744628906	0.9947919921875	-0.07725299835205078	-0.018148300170898437	1.03197998046875	-0.019366899490356446	0.014297900199890136	0.9881339721679687	-0.03744589996337891	0.015699899673461915	0.9975800170898438	-0.05520589828491211	0.014514699935913086	1.0093400268554686	-0.06972509765625	0.004532770156860351	1.0363800048828125	-0.10751300048828125	-0.012691699981689453	1.117469970703125
2	0.06666666666666667	-0.040971298217773434	-0.11886299896240235	1.0541700439453126	-0.049507801055908206	-0.09439769744873047	1.0674599609375	-0.069143798828125	-0.07887129974365234	1.0898800048828126	-0.07853810119628907	-0.04315250015258789	1.1016400146484375	-0.026123600006103517	-0.0839364013671875	0.9733599853515625	-0.043655799865722655	-0.08011820220947266	0.989552001953125	-0.06135449981689453	-0.0754448013305664	1.0079400024414062	-0.08481880187988282	-0.06614099884033203	1.0411500244140626	-0.022042200088500975	-0.05167340087890625	0.9507269897460937	-0.03704690170288086	-0.04981209945678711	0.9730079956054688	-0.05609870147705078	-0.04729819869995117	0.9978389892578124	-0.08305220031738281	-0.04154520034790039	1.03247998046875	-0.015773799896240233	-0.02021030044555664	0.9550079956054688	-0.03341730117797852	-0.018878799438476562	0.9738400268554688	-0.054333599090576175	-0.01819580078125	0.9956729736328125	-0.07603970336914062	-0.018582500457763673	1.0323900146484375	-0.01929319953918457	0.0158125	0.9863140258789063	-0.03692689895629883	0.01605459976196289	0.9971649780273437	-0.053925201416015624	0.014050000190734864	1.00977001953125	-0.06879109954833984	0.004198560237884521	1.0368699951171876	-0.1078730010986328	-0.012089300155639648	1.117739990234375
3	0.1	-0.044237098693847655	-0.12302999877929688	1.05906005859375	-0.05100090026855469	-0.0974458999633789	1.07075	-0.06995210266113282	-0.07994239807128906	1.0916500244140626	-0.07888259887695312	-0.04336309814453125	1.10256005859375	-0.03190489959716797	-0.0891602020263672	0.9692119750976562	-0.0457156982421875	-0.08400140380859375	0.9885609741210938	-0.05998669815063477	-0.0779199981689453	1.0092000122070313	-0.08183350372314453	-0.06680509948730469	1.042510009765625	-0.021847900390625	-0.05331399917602539	0.9506270141601563	-0.03519469833374023	-0.051284198760986326	0.9739520263671875	-0.05271580123901367	-0.04857529830932617	0.9996820068359376	-0.07972689819335937	-0.04228739929199219	1.0333900146484376	-0.01749449920654297	-0.01940999984741211	0.95231201171875	-0.033006301879882814	-0.018808000564575194	0.973510986328125	-0.05169910049438477	-0.018804399490356446	0.9969320068359375	-0.07338670349121093	-0.019161500930786134	1.0331800537109375	-0.021249500274658203	0.0191018009185791	0.9829739990234375	-0.03762419891357422	0.017245000839233398	0.9962839965820313	-0.05316289901733398	0.013822899818420411	1.0104099731445313	-0.06748729705810547	0.0037328200340270993	1.037469970703125	-0.10834500122070312	-0.012145500183105468	1.118530029296875
